<?xml version="1.0" encoding="UTF-8"?>
<!DOCTYPE svg PUBLIC "-//W3C//DTD SVG 1.1//EN" "http://www.w3.org/Graphics/SVG/1.1/DTD/svg11.dtd">
<svg xmlns="http://www.w3.org/2000/svg" version="1.1" width="500px" height="500px" style="shape-rendering:geometricPrecision; text-rendering:geometricPrecision; image-rendering:optimizeQuality; fill-rule:evenodd; clip-rule:evenodd" xmlns:xlink="http://www.w3.org/1999/xlink">
<g><path style="opacity:1" fill="#fc914d" d="M 175.5,-0.5 C 176.5,-0.5 177.5,-0.5 178.5,-0.5C 178.665,2.8499 178.498,6.18323 178,9.5C 174.577,24.6138 171.411,39.7805 168.5,55C 168.767,58.1642 170.433,59.1642 173.5,58C 191.884,47.3034 211.551,42.6367 232.5,44C 220.368,48.9371 208.368,54.2704 196.5,60C 188.891,63.9689 182.224,69.1356 176.5,75.5C 177.167,75.8333 177.833,76.1667 178.5,76.5C 193.83,71.7669 209.497,69.1002 225.5,68.5C 255.966,68.9236 281.799,79.9236 303,101.5C 304.333,103.5 305.667,105.5 307,107.5C 307.986,109.925 307.319,111.591 305,112.5C 295.43,107.796 285.597,103.796 275.5,100.5C 273.681,100.342 272.348,101.009 271.5,102.5C 273.105,105.314 274.105,108.314 274.5,111.5C 272.473,111.662 270.473,111.495 268.5,111C 260.247,105.75 251.747,100.917 243,96.5C 241.941,96.6301 241.108,97.1301 240.5,98C 242.883,102.26 244.549,106.76 245.5,111.5C 243.073,111.477 240.74,110.977 238.5,110C 229.699,103.851 220.532,98.3512 211,93.5C 209.72,93.6135 208.887,94.2801 208.5,95.5C 209.642,98.3992 210.308,101.399 210.5,104.5C 208.801,104.66 207.134,104.494 205.5,104C 198.897,100.354 191.897,97.6868 184.5,96C 182.167,95.3333 179.833,95.3333 177.5,96C 175.059,96.036 173.059,96.8693 171.5,98.5C 183.336,107.495 195.336,116.328 207.5,125C 232.655,146.437 244.655,173.77 243.5,207C 243.611,223.503 240.444,239.337 234,254.5C 232.951,255.517 231.784,255.684 230.5,255C 229.54,253.581 228.707,252.081 228,250.5C 226.174,240.705 223.841,231.038 221,221.5C 220.586,221.043 220.086,220.709 219.5,220.5C 217.572,222.578 215.405,223.245 213,222.5C 212.392,219.183 211.892,215.849 211.5,212.5C 212.388,203.189 212.721,193.856 212.5,184.5C 212.343,183.127 212.51,181.793 213,180.5C 213.333,181.167 213.667,181.833 214,182.5C 215.188,181.437 215.688,180.103 215.5,178.5C 214.178,178.67 213.011,178.337 212,177.5C 209.937,181.155 208.103,181.155 206.5,177.5C 203.266,179.572 202.933,181.905 205.5,184.5C 201.199,184.381 199.199,186.381 199.5,190.5C 198.5,190.5 197.5,190.5 196.5,190.5C 196.667,178.162 196.5,165.829 196,153.5C 195.8,151.68 194.966,150.347 193.5,149.5C 190.484,149.841 187.818,151.007 185.5,153C 183.5,153.667 181.5,153.667 179.5,153C 175.345,143.885 171.178,134.718 167,125.5C 164.667,122.167 162.333,118.833 160,115.5C 156.113,112.869 152.28,113.035 148.5,116C 125.692,141.988 109.025,171.488 98.5,204.5C 97.7512,200.253 97.7512,196.087 98.5,192C 97.3826,190.108 95.7159,189.275 93.5,189.5C 93.3354,186.482 93.502,183.482 94,180.5C 96.1005,179.076 98.2672,177.742 100.5,176.5C 99.675,175.614 98.675,175.281 97.5,175.5C 97.2493,172.091 97.5827,168.758 98.5,165.5C 103.622,162.927 105.789,158.927 105,153.5C 106.533,153.056 108.033,152.723 109.5,152.5C 108.5,151.167 107.5,149.833 106.5,148.5C 102.596,149.849 101.263,152.349 102.5,156C 100.697,156.637 99.3636,157.803 98.5,159.5C 97.8182,158.757 97.1515,158.091 96.5,157.5C 99.2522,152.9 102.252,148.4 105.5,144C 104.234,143.691 103.067,143.191 102,142.5C 101.83,135.77 101.163,129.103 100,122.5C 99.2747,120.842 98.108,120.342 96.5,121C 83.2751,132.063 74.2751,145.897 69.5,162.5C 68.1667,163.833 66.8333,163.833 65.5,162.5C 64.1785,157.934 63.3452,153.267 63,148.5C 62.2747,146.842 61.108,146.342 59.5,147C 50.0321,156.937 42.0321,167.937 35.5,180C 34.8333,180.667 34.1667,180.667 33.5,180C 31.5111,177.044 29.3444,174.211 27,171.5C 25.5806,172.46 24.0806,173.293 22.5,174C 15.0876,182.096 9.25423,191.263 5,201.5C 3.17216,202.752 1.33883,202.752 -0.5,201.5C -0.5,197.5 -0.5,193.5 -0.5,189.5C 13.5542,150.94 39.5542,123.44 77.5,107C 92.5547,101.259 107.888,96.4261 123.5,92.5C 126.167,92.5 128.833,92.5 131.5,92.5C 131.739,90.5328 131.406,88.6995 130.5,87C 120.454,86.7845 110.454,86.2845 100.5,85.5C 98.4096,82.1252 95.4096,80.9586 91.5,82C 82.9163,84.9601 74.583,88.4601 66.5,92.5C 65.2801,92.1131 64.6135,91.2798 64.5,90C 66.6691,86.3768 68.0024,82.5435 68.5,78.5C 58.2667,78.9667 48.9333,82.1334 40.5,88C 39.2068,88.49 37.8734,88.6567 36.5,88.5C 38.5,83.8333 40.5,79.1667 42.5,74.5C 30.6802,78.4393 18.6802,81.7727 6.5,84.5C 7.12643,81.6851 8.45976,79.1851 10.5,77C 34.1581,57.6692 61.1581,51.0025 91.5,57C 103.447,59.3153 115.114,62.6486 126.5,67C 128.833,67.6667 131.167,67.6667 133.5,67C 134.545,63.0735 134.045,59.2401 132,55.5C 127.547,44.5922 122.547,33.9256 117,23.5C 116.187,21.5643 115.687,19.5643 115.5,17.5C 118.691,18.0922 121.691,19.2589 124.5,21C 134.69,29.1916 143.523,38.6916 151,49.5C 158.892,32.7151 167.059,16.0484 175.5,-0.5 Z M 110.5,137.5 C 115.148,126.349 122.814,117.849 133.5,112C 134.5,111.333 135.5,111.333 136.5,112C 127.302,120.032 118.635,128.532 110.5,137.5 Z M 110.5,137.5 C 110.573,139.027 109.906,140.027 108.5,140.5C 108.427,138.973 109.094,137.973 110.5,137.5 Z"/></g>
<g><path style="opacity:1" fill="#ec945c" d="M 100.5,85.5 C 110.454,86.2845 120.454,86.7845 130.5,87C 131.406,88.6995 131.739,90.5328 131.5,92.5C 128.833,92.5 126.167,92.5 123.5,92.5C 133.049,89.3544 132.549,87.6877 122,87.5C 115.516,88.4658 109.016,88.6324 102.5,88C 101.619,87.2917 100.953,86.4584 100.5,85.5 Z"/></g>
<g><path style="opacity:1" fill="#f49357" d="M 193.5,149.5 C 194.966,150.347 195.8,151.68 196,153.5C 196.5,165.829 196.667,178.162 196.5,190.5C 197.5,190.5 198.5,190.5 199.5,190.5C 199.199,186.381 201.199,184.381 205.5,184.5C 202.933,181.905 203.266,179.572 206.5,177.5C 208.103,181.155 209.937,181.155 212,177.5C 213.011,178.337 214.178,178.67 215.5,178.5C 215.688,180.103 215.188,181.437 214,182.5C 213.667,181.833 213.333,181.167 213,180.5C 212.51,181.793 212.343,183.127 212.5,184.5C 211.842,183.602 211.176,182.602 210.5,181.5C 207.009,185.16 203.676,188.994 200.5,193C 198.888,193.72 197.388,193.554 196,192.5C 195.667,180.167 195.333,167.833 195,155.5C 194.495,153.482 193.995,151.482 193.5,149.5 Z"/></g>
<g><path style="opacity:1" fill="#fe914c" d="M 98.5,204.5 C 88.5262,244.807 96.3595,281.14 122,313.5C 123.389,315.227 125.056,316.561 127,317.5C 134.714,313.123 141.881,307.956 148.5,302C 149.833,301.333 151.167,301.333 152.5,302C 157.57,329.366 173.904,341.366 201.5,338C 226.547,333.413 246.38,320.913 261,300.5C 263.667,294.5 266.333,288.5 269,282.5C 271.333,279.833 273.667,279.833 276,282.5C 284.838,309.971 303.838,323.637 333,323.5C 352.85,323.991 371.017,318.824 387.5,308C 392.21,303.892 396.21,299.225 399.5,294C 403.058,291.846 406.225,292.346 409,295.5C 426.969,325.076 453.469,339.409 488.5,338.5C 473.248,393.517 441.582,436.35 393.5,467C 363.888,485.148 331.888,495.981 297.5,499.5C 283.833,499.5 270.167,499.5 256.5,499.5C 179.851,489.652 122.351,451.318 84,384.5C 71.2193,360.326 63.386,334.659 60.5,307.5C 61.1255,300.416 60.4589,293.75 58.5,287.5C 56.9201,239.788 69.5868,196.454 96.5,157.5C 97.1515,158.091 97.8182,158.757 98.5,159.5C 99.3636,157.803 100.697,156.637 102.5,156C 101.263,152.349 102.596,149.849 106.5,148.5C 107.5,149.833 108.5,151.167 109.5,152.5C 108.033,152.723 106.533,153.056 105,153.5C 105.789,158.927 103.622,162.927 98.5,165.5C 97.5827,168.758 97.2493,172.091 97.5,175.5C 98.675,175.281 99.675,175.614 100.5,176.5C 98.2672,177.742 96.1005,179.076 94,180.5C 93.502,183.482 93.3354,186.482 93.5,189.5C 95.7159,189.275 97.3826,190.108 98.5,192C 97.7512,196.087 97.7512,200.253 98.5,204.5 Z"/></g>
<g><path style="opacity:1" fill="#226389" d="M 269.5,62.5 C 353.174,60.7521 418.007,94.7521 464,164.5C 493.184,213.435 502.684,265.935 492.5,322C 467.885,326.13 447.385,318.964 431,300.5C 426,293.167 421,285.833 416,278.5C 413.976,276.654 411.643,275.321 409,274.5C 404.48,275.009 400.314,276.509 396.5,279C 388.538,285.294 380.871,291.96 373.5,299C 362.817,306.13 350.984,309.297 338,308.5C 322.044,309.407 308.377,304.407 297,293.5C 292.868,288.442 290.701,282.608 290.5,276C 292.25,266.169 293.917,256.335 295.5,246.5C 296.613,236.745 292.947,233.912 284.5,238C 282.04,239.458 279.873,241.291 278,243.5C 265.755,265.664 252.755,287.331 239,308.5C 220.324,327.21 198.824,331.377 174.5,321C 170.279,317.395 167.446,312.895 166,307.5C 165.667,299.5 165.333,291.5 165,283.5C 161.839,278.866 158.006,278.366 153.5,282C 148.313,289.366 142.646,296.366 136.5,303C 135.034,303.635 133.7,304.469 132.5,305.5C 129.675,302.505 127.008,299.338 124.5,296C 132.8,283.9 141.467,272.067 150.5,260.5C 167.056,244.758 186.389,239.591 208.5,245C 197.928,256.639 189.761,269.805 184,284.5C 181.818,293.627 185.318,299.127 194.5,301C 201.388,302.344 207.722,301.01 213.5,297C 218.7,292.135 223.533,286.968 228,281.5C 238.262,265.308 249.262,249.641 261,234.5C 273.366,219.452 288.866,209.285 307.5,204C 316.833,202 326.167,202 335.5,204C 337.303,204.637 338.636,205.803 339.5,207.5C 329.233,222.033 321.066,237.7 315,254.5C 311.992,262.965 313.492,270.465 319.5,277C 325.914,281.374 332.914,284.374 340.5,286C 349.954,286.74 358.621,284.407 366.5,279C 371.167,275.667 375.833,272.333 380.5,269C 390.252,259.584 399.585,249.917 408.5,240C 415.878,236.227 423.545,235.561 431.5,238C 432.126,238.75 432.626,239.584 433,240.5C 427.617,263.025 434.117,281.192 452.5,295C 460.498,300.668 468.831,305.834 477.5,310.5C 482.448,246.514 464.281,190.181 423,141.5C 390.95,106.888 351.45,86.0546 304.5,79C 294.079,70.9123 282.412,65.4123 269.5,62.5 Z"/></g>
<g><path style="opacity:1" fill="#246387" d="M 353.5,214.5 C 356.93,214.107 360.096,214.773 363,216.5C 362.968,218.598 362.301,220.598 361,222.5C 354.667,228.167 348.333,233.833 342,239.5C 337.667,244.833 333.333,250.167 329,255.5C 330.608,243.275 335.275,232.275 343,222.5C 345.94,218.963 349.44,216.297 353.5,214.5 Z"/></g>
<g><path style="opacity:0.99" fill="#e99661" d="M 58.5,287.5 C 60.4589,293.75 61.1255,300.416 60.5,307.5C 59.064,301.053 58.3974,294.386 58.5,287.5 Z"/></g>
</svg>
